{"title":"Windows 8 For Dummies DVD(dvdripmp4)","uid":8233920,"size":537723978,"categoryP":"video","categoryS":"other","magnet":"?xt=urn:btih:a2e01628b70f46585d3ccd6afbe2a61f4b012a63&amp;dn=Windows+8+For+Dummies+DVD%28dvdripmp4%29&amp;tr=udp%3A%2F%2Ftracker.openbittorrent.com%3A80&amp;tr=udp%3A%2F%2Fopen.demonii.com%3A1337&amp;tr=udp%3A%2F%2Ftracker.coppersurfer.tk%3A6969&amp;tr=udp%3A%2F%2Fexodus.desync.com%3A6969","seeders":2,"leechers":1,"uploader":"russell887","files":4,"time":1362797955,"description":"This four-hour DVD offers short, two- to five-minute walkthrough video lessons on the most common Windows 8 tools.\n\nDisc #1 - Basic Windows Mechanics.\nDisc #2 - Saving to Storage Devices.\nDisc #3 - Staying Safe Online.\nDisc #4 - Ten Common Problems and How to Fix Them.  \n\nGeneral  \n\nFormat                                   : MPEG-4\nFormat profile                           : Base Media / Version 2\nCodec ID                                 : mp42\nFile size                                : 174 MiB\nOverall bit rate mode                    : Variable\nOverall bit rate                         : 2 020 Kbps  \n\nVideo\nID                                       : 1\nFormat                                   : AVC\nFormat/Info                              : Advanced Video Codec\nFormat profile                           : &lt;a class=&quot;__cf_email__&quot; href=&quot;/cdn-cgi/l/email-protection&quot; data-cfemail=&quot;ace1cdc5c2ece09f829c&quot;&gt;[email&amp;#160;protected]&lt;/a&gt;&lt;script cf-hash='f9e31' type=&quot;text/javascript&quot;&gt;\n/* &lt;![CDATA[ */!function(){try{var t=&quot;currentScript&quot;in document?document.currentScript:function(){for(var t=document.getElementsByTagName(&quot;script&quot;),e=t.length;e--;)if(t[e].getAttribute(&quot;cf-hash&quot;))return t[e]}();if(t&amp;&amp;t.previousSibling){var e,r,n,i,c=t.previousSibling,a=c.getAttribute(&quot;data-cfemail&quot;);if(a){for(e=&quot;&quot;,r=parseInt(a.substr(0,2),16),n=2;a.length-n;n+=2)i=parseInt(a.substr(n,2),16)^r,e+=String.fromCharCode(i);e=document.createTextNode(e),c.parentNode.replaceChild(e,c)}}}catch(u){}}();/* ]]&gt; */&lt;/script&gt;\nFormat settings, CABAC                   : Yes\nFormat settings, ReFrames                : 2 frames\nCodec ID                                 : avc1\nCodec ID/Info                            : Advanced Video Coding  \nBit rate mode                            : Variable\nBit rate                                 : 1 830 Kbps\nMaximum bit rate                         : 7 915 Kbps\nWidth                                    : 720 pixels\nHeight                                   : 480 pixels\nDisplay aspect ratio                     : 16:9\nOriginal display aspect ratio            : 16:9\nFrame rate mode                          : Constant\nFrame rate                               : 29.970 fps\nStandard                                 : NTSC\nColor space                              : YUV\nChroma subsampling                       : 4:2:0\nBit depth                                : 8 bits\nScan type                                : Progressive\nBits/(Pixel*Frame)                       : 0.177\nStream size                              : 157 MiB (91%)\nLanguage                                 : English\n\nAudio\nID                                       : 2\nFormat                                   : AAC\nFormat/Info                              : Advanced Audio Codec\nFormat profile                           : LC\nCodec ID                                 : 40\nBit rate mode                            : Variable\nBit rate                                 : 186 Kbps\nMaximum bit rate                         : 235 Kbps\nChannel(s)                               : 2 channels\nChannel positions                        : Front: L R\nSampling rate                            : 48.0 KHz\nCompression mode                         : Lossy\nStream size                              : 16.0 MiB (9%)\nLanguage                                 :English    \n\nSIZE:  512MB\n","torrent":{"xt":"urn:btih:a2e01628b70f46585d3ccd6afbe2a61f4b012a63","amp;dn":"Windows+8+For+Dummies+DVD%28dvdripmp4%29","amp;tr":["udp%3A%2F%2Ftracker.openbittorrent.com%3A80","udp%3A%2F%2Fopen.demonii.com%3A1337","udp%3A%2F%2Ftracker.coppersurfer.tk%3A6969","udp%3A%2F%2Fexodus.desync.com%3A6969"],"infoHash":"a2e01628b70f46585d3ccd6afbe2a61f4b012a63","infoHashBuffer":{"type":"Buffer","data":[162,224,22,40,183,15,70,88,93,60,205,106,251,226,166,31,75,1,42,99]},"announce":[],"urlList":[]}}